<svg width="188" height="40" viewBox="0 0 188 40" fill="none" xmlns="http://www.w3.org/2000/svg">
<g clip-path="url(#clip0_15_1009)">
<path fill-rule="evenodd" clip-rule="evenodd" d="M29.25 34.2857C30.7602 34.2857 32.2556 33.99 33.6508 33.4157C35.0461 32.8413 36.3139 31.9996 37.3818 30.9383C38.4497 29.8771 39.2966 28.6172 39.8746 27.2306C40.4525 25.8441 40.75 24.3579 40.75 22.8571C40.75 18.3106 38.9325 13.9501 35.6976 10.7353C32.4626 7.52035 28.0749 5.71423 23.5 5.71423C18.9251 5.71423 14.5374 7.52035 11.3024 10.7353C8.0674 13.9501 6.25 18.3106 6.25 22.8571C6.25 24.3579 6.54746 25.8441 7.12538 27.2306C7.70331 28.6172 8.5504 29.8771 9.61827 30.9383C10.6861 31.9996 11.9539 32.8413 13.3492 33.4157C14.7444 33.99 16.2398 34.2857 17.75 34.2857H29.25ZM23.5 10.2857C20.145 10.2857 16.9274 11.6101 14.5551 13.9677C12.1827 16.3253 10.85 19.5229 10.85 22.8571C10.85 23.7575 11.0285 24.6492 11.3752 25.4812C11.722 26.3132 12.2302 27.0691 12.871 27.7058C13.5117 28.3426 14.2723 28.8476 15.1095 29.1923C15.9467 29.5369 16.8439 29.7142 17.75 29.7142H29.25C30.1561 29.7142 31.0533 29.5369 31.8905 29.1923C32.7277 28.8476 33.4883 28.3426 34.129 27.7058C34.7698 27.0691 35.278 26.3132 35.6248 25.4812C35.9715 24.6492 36.15 23.7575 36.15 22.8571C36.15 19.5229 34.8173 16.3253 32.4449 13.9677C30.0726 11.6101 26.855 10.2857 23.5 10.2857Z" fill="#F29C33"/>
<path fill-rule="evenodd" clip-rule="evenodd" d="M15.45 40C13.4867 40 11.5427 39.5566 9.72889 38.6951C7.91511 37.8336 6.26702 36.5709 4.87875 34.979C3.49054 33.3871 2.38932 31.4974 1.638 29.4175C0.886696 27.3376 0.5 25.1083 0.5 22.8571C0.5 16.7951 2.92321 10.9812 7.23655 6.6947C11.5499 2.40816 17.4001 0 23.5 0C29.5999 0 35.4501 2.40816 39.7634 6.6947C44.0768 10.9812 46.5 16.7951 46.5 22.8571C46.5 25.1083 46.1133 27.3376 45.362 29.4175C44.6107 31.4974 43.5094 33.3871 42.1213 34.979C40.733 36.5709 39.0849 37.8336 37.2711 38.6951C35.4572 39.5566 33.5133 40 31.55 40H15.45ZM10.4892 9.92719C13.9399 6.49795 18.62 4.57143 23.5 4.57143C28.38 4.57143 33.0601 6.49795 36.5108 9.92719C39.9614 13.3565 41.9 18.0074 41.9 22.8571C41.9 24.5919 41.6015 26.2979 41.0326 27.8729C40.4637 29.4478 39.6432 30.8405 38.645 31.985C37.648 33.1283 36.5002 33.9945 35.2875 34.5705C34.0778 35.1451 32.8101 35.4286 31.55 35.4286H15.45C14.1899 35.4286 12.9222 35.1451 11.7125 34.5705C10.4998 33.9945 9.35201 33.1283 8.35493 31.985C7.35678 30.8405 6.53638 29.4478 5.96748 27.8729C5.39855 26.2979 5.1 24.5919 5.1 22.8571C5.1 18.0074 7.03857 13.3565 10.4892 9.92719Z" fill="#EE6352"/>
<path opacity="0.4" d="M29.25 28.5714H23.4949C23.1085 28.5711 22.725 28.532 22.35 28.456C21.6232 28.3086 20.9283 28.022 20.3055 27.6084C19.3599 26.9805 18.6228 26.0881 18.1877 25.0439C18.0466 24.7053 17.9392 24.3557 17.8661 24C17.7139 23.2589 17.7106 22.4913 17.8605 21.7423C18.0823 20.6338 18.63 19.6157 19.4342 18.8166C20.2383 18.0174 21.2628 17.4732 22.3782 17.2527C22.4131 17.2457 22.448 17.2392 22.4829 17.2329C22.82 17.1728 23.1604 17.1429 23.5 17.1429C24.2515 17.1429 24.9994 17.2893 25.7004 17.5778C26.7511 18.0103 27.6491 18.7428 28.2809 19.6824C28.9128 20.6222 29.25 21.727 29.25 22.8572H24.65C24.65 22.6311 24.5826 22.4102 24.4562 22.2222C24.3298 22.0343 24.1502 21.8878 23.9401 21.8013C23.73 21.7148 23.4987 21.6921 23.2756 21.7362C23.0525 21.7804 22.8476 21.8892 22.6868 22.049C22.5259 22.2088 22.4165 22.4125 22.3721 22.6342C22.3277 22.8559 22.3505 23.0857 22.4375 23.2945C22.5246 23.5033 22.672 23.6818 22.8611 23.8074C23.0502 23.933 23.2725 24 23.5 24H29.25C29.401 24 29.5506 23.9704 29.6901 23.913C29.8296 23.8556 29.9563 23.7714 30.0632 23.6653C30.17 23.5591 30.2546 23.4332 30.3125 23.2945C30.3702 23.1559 30.4 23.0072 30.4 22.8572C30.4 21.0385 29.6731 19.2944 28.379 18.0085C27.085 16.7224 25.33 16 23.5 16C23.3015 16 23.1039 16.0085 22.9078 16.0253C22.4256 16.0665 21.9515 16.158 21.4932 16.2965C21.0423 16.4326 20.6066 16.6144 20.1929 16.8389C19.7191 17.096 19.2743 17.4092 18.8689 17.774C18.7845 17.8498 18.7019 17.928 18.621 18.0085C18.0549 18.571 17.5973 19.2214 17.2616 19.9272C17.0938 20.2801 16.9564 20.6469 16.8513 21.0236C16.731 21.4542 16.6528 21.8976 16.6191 22.3479C16.6064 22.5168 16.6 22.6866 16.6 22.8572C16.6 23.7533 16.7768 24.6453 17.1252 25.4813C17.6475 26.7343 18.5319 27.8052 19.6666 28.5586C19.673 28.563 19.6795 28.5672 19.6859 28.5714H17.75C16.9949 28.5714 16.2472 28.4237 15.5496 28.1365C14.852 27.8493 14.2181 27.4284 13.6842 26.8977C13.1502 26.3671 12.7267 25.7372 12.4377 25.0439C12.1487 24.3506 12 23.6076 12 22.8572C12 19.8261 13.2116 16.9192 15.3682 14.7759C17.5249 12.6327 20.45 11.4286 23.5 11.4286C26.55 11.4286 29.4751 12.6327 31.6318 14.7759C33.7884 16.9192 35 19.8261 35 22.8572C35 23.6076 34.8513 24.3506 34.5623 25.0439C34.2733 25.7372 33.8498 26.3671 33.3158 26.8977C32.7819 27.4284 32.148 27.8493 31.4504 28.1365C30.7528 28.4237 30.0051 28.5714 29.25 28.5714Z" fill="#F29C33"/>
</g>
<path d="M55.9023 35H50.5312V5.76172H55.9023V35ZM68.3047 29.8828C68.513 29.9479 68.7214 29.9935 68.9297 30.0195C69.138 30.0326 69.3464 30.0391 69.5547 30.0391C70.0755 30.0391 70.5768 29.9674 71.0586 29.8242C71.5404 29.681 71.9896 29.4792 72.4062 29.2188C72.8359 28.9453 73.2135 28.6198 73.5391 28.2422C73.8776 27.8516 74.151 27.4219 74.3594 26.9531L78.2656 30.8789C77.7708 31.582 77.1979 32.2135 76.5469 32.7734C75.9089 33.3333 75.2122 33.8086 74.457 34.1992C73.7148 34.5898 72.9271 34.8828 72.0938 35.0781C71.2734 35.2865 70.4271 35.3906 69.5547 35.3906C68.0833 35.3906 66.6966 35.1172 65.3945 34.5703C64.1055 34.0234 62.9727 33.2617 61.9961 32.2852C61.0326 31.3086 60.2708 30.1497 59.7109 28.8086C59.151 27.4544 58.8711 25.9701 58.8711 24.3555C58.8711 22.7018 59.151 21.1914 59.7109 19.8242C60.2708 18.457 61.0326 17.2917 61.9961 16.3281C62.9727 15.3646 64.1055 14.6159 65.3945 14.082C66.6966 13.5482 68.0833 13.2812 69.5547 13.2812C70.4271 13.2812 71.2799 13.3854 72.1133 13.5938C72.9466 13.8021 73.7344 14.1016 74.4766 14.4922C75.2318 14.8828 75.9349 15.3646 76.5859 15.9375C77.237 16.4974 77.8099 17.1289 78.3047 17.832L68.3047 29.8828ZM71.0391 18.8867C70.7917 18.7956 70.5443 18.737 70.2969 18.7109C70.0625 18.6849 69.8151 18.6719 69.5547 18.6719C68.8255 18.6719 68.1354 18.8086 67.4844 19.082C66.8464 19.3424 66.2865 19.7201 65.8047 20.2148C65.3359 20.7096 64.9648 21.3086 64.6914 22.0117C64.418 22.7018 64.2812 23.4831 64.2812 24.3555C64.2812 24.5508 64.2878 24.7721 64.3008 25.0195C64.3268 25.2669 64.3594 25.5208 64.3984 25.7812C64.4505 26.0286 64.5091 26.2695 64.5742 26.5039C64.6393 26.7383 64.724 26.9466 64.8281 27.1289L71.0391 18.8867ZM91.4883 35C90.1992 35 88.9883 34.7591 87.8555 34.2773C86.7227 33.7826 85.7266 33.112 84.8672 32.2656C84.0208 31.4062 83.3503 30.4102 82.8555 29.2773C82.3737 28.1445 82.1328 26.9336 82.1328 25.6445V19.4336H79.5352V14.1211H82.1328V5.76172H87.4453V14.1211H95.5312V19.4336H87.4453V25.6445C87.4453 26.2044 87.5495 26.7318 87.7578 27.2266C87.9661 27.7083 88.2526 28.1315 88.6172 28.4961C88.9818 28.8607 89.4115 29.1536 89.9062 29.375C90.401 29.5833 90.9284 29.6875 91.4883 29.6875H95.5312V35H91.4883ZM116.82 18.2422L112.914 22.168C112.719 21.6211 112.452 21.1328 112.113 20.7031C111.775 20.2604 111.391 19.8893 110.961 19.5898C110.544 19.2904 110.089 19.0625 109.594 18.9062C109.099 18.75 108.591 18.6719 108.07 18.6719C107.341 18.6719 106.651 18.8216 106 19.1211C105.362 19.4206 104.802 19.8438 104.32 20.3906C103.852 20.9245 103.48 21.5625 103.207 22.3047C102.934 23.0469 102.797 23.8672 102.797 24.7656C102.797 25.4948 102.934 26.1784 103.207 26.8164C103.48 27.4544 103.852 28.0143 104.32 28.4961C104.802 28.9779 105.362 29.3555 106 29.6289C106.651 29.9023 107.341 30.0391 108.07 30.0391C108.591 30.0391 109.092 29.9674 109.574 29.8242C110.056 29.681 110.505 29.4792 110.922 29.2188C111.352 28.9453 111.729 28.6198 112.055 28.2422C112.393 27.8516 112.667 27.4219 112.875 26.9531L116.781 30.8789C116.286 31.582 115.714 32.2135 115.062 32.7734C114.424 33.3333 113.728 33.8086 112.973 34.1992C112.23 34.5898 111.443 34.8828 110.609 35.0781C109.789 35.2865 108.943 35.3906 108.07 35.3906C106.599 35.3906 105.212 35.1172 103.91 34.5703C102.621 34.0104 101.488 33.2487 100.512 32.2852C99.5482 31.3216 98.7865 30.1953 98.2266 28.9062C97.6667 27.6172 97.3867 26.237 97.3867 24.7656C97.3867 23.1641 97.6667 21.6667 98.2266 20.2734C98.7865 18.8802 99.5482 17.6693 100.512 16.6406C101.488 15.599 102.621 14.7786 103.91 14.1797C105.212 13.5807 106.599 13.2812 108.07 13.2812C108.943 13.2812 109.796 13.3919 110.629 13.6133C111.475 13.8346 112.276 14.1602 113.031 14.5898C113.799 15.0065 114.503 15.5208 115.141 16.1328C115.792 16.7448 116.352 17.4479 116.82 18.2422ZM139.34 24.3555C139.34 25.918 139.06 27.3763 138.5 28.7305C137.94 30.0716 137.178 31.237 136.215 32.2266C135.251 33.2031 134.118 33.9779 132.816 34.5508C131.527 35.1107 130.141 35.3906 128.656 35.3906C127.185 35.3906 125.798 35.1107 124.496 34.5508C123.207 33.9779 122.074 33.2031 121.098 32.2266C120.134 31.237 119.372 30.0716 118.812 28.7305C118.253 27.3763 117.973 25.918 117.973 24.3555C117.973 22.7669 118.253 21.2956 118.812 19.9414C119.372 18.5872 120.134 17.4219 121.098 16.4453C122.074 15.4557 123.207 14.681 124.496 14.1211C125.798 13.5612 127.185 13.2812 128.656 13.2812C130.141 13.2812 131.527 13.5482 132.816 14.082C134.118 14.6029 135.251 15.3516 136.215 16.3281C137.178 17.2917 137.94 18.457 138.5 19.8242C139.06 21.1784 139.34 22.6888 139.34 24.3555ZM133.969 24.3555C133.969 23.4961 133.826 22.7214 133.539 22.0312C133.266 21.3281 132.888 20.7292 132.406 20.2344C131.924 19.7266 131.358 19.3424 130.707 19.082C130.069 18.8086 129.385 18.6719 128.656 18.6719C127.927 18.6719 127.237 18.8086 126.586 19.082C125.948 19.3424 125.388 19.7266 124.906 20.2344C124.438 20.7292 124.066 21.3281 123.793 22.0312C123.52 22.7214 123.383 23.4961 123.383 24.3555C123.383 25.1628 123.52 25.9115 123.793 26.6016C124.066 27.2917 124.438 27.8906 124.906 28.3984C125.388 28.9062 125.948 29.3099 126.586 29.6094C127.237 29.8958 127.927 30.0391 128.656 30.0391C129.385 30.0391 130.069 29.9023 130.707 29.6289C131.358 29.3555 131.924 28.9714 132.406 28.4766C132.888 27.9818 133.266 27.3828 133.539 26.6797C133.826 25.9766 133.969 25.2018 133.969 24.3555ZM162.504 24.3555C162.504 25.918 162.224 27.3763 161.664 28.7305C161.104 30.0716 160.342 31.237 159.379 32.2266C158.415 33.2031 157.283 33.9779 155.98 34.5508C154.691 35.1107 153.305 35.3906 151.82 35.3906C150.349 35.3906 148.962 35.1107 147.66 34.5508C146.371 33.9779 145.238 33.2031 144.262 32.2266C143.298 31.237 142.536 30.0716 141.977 28.7305C141.417 27.3763 141.137 25.918 141.137 24.3555C141.137 22.7669 141.417 21.2956 141.977 19.9414C142.536 18.5872 143.298 17.4219 144.262 16.4453C145.238 15.4557 146.371 14.681 147.66 14.1211C148.962 13.5612 150.349 13.2812 151.82 13.2812C153.305 13.2812 154.691 13.5482 155.98 14.082C157.283 14.6029 158.415 15.3516 159.379 16.3281C160.342 17.2917 161.104 18.457 161.664 19.8242C162.224 21.1784 162.504 22.6888 162.504 24.3555ZM157.133 24.3555C157.133 23.4961 156.99 22.7214 156.703 22.0312C156.43 21.3281 156.052 20.7292 155.57 20.2344C155.089 19.7266 154.522 19.3424 153.871 19.082C153.233 18.8086 152.549 18.6719 151.82 18.6719C151.091 18.6719 150.401 18.8086 149.75 19.082C149.112 19.3424 148.552 19.7266 148.07 20.2344C147.602 20.7292 147.23 21.3281 146.957 22.0312C146.684 22.7214 146.547 23.4961 146.547 24.3555C146.547 25.1628 146.684 25.9115 146.957 26.6016C147.23 27.2917 147.602 27.8906 148.07 28.3984C148.552 28.9062 149.112 29.3099 149.75 29.6094C150.401 29.8958 151.091 30.0391 151.82 30.0391C152.549 30.0391 153.233 29.9023 153.871 29.6289C154.522 29.3555 155.089 28.9714 155.57 28.4766C156.052 27.9818 156.43 27.3828 156.703 26.6797C156.99 25.9766 157.133 25.2018 157.133 24.3555ZM170.824 35H165.453V5.76172H170.824V24.1992L178.773 14.1211H184.906L177.973 22.832L184.906 35H178.773L174.535 27.4023L170.824 32.3242V35Z" fill="#F15025"/>
<defs>
<clipPath id="clip0_15_1009">
<rect width="46" height="40" fill="white" transform="translate(0.5)"/>
</clipPath>
</defs>
</svg>
