<svg width="94" height="20" viewBox="0 0 94 20" fill="none" xmlns="http://www.w3.org/2000/svg">
<g clip-path="url(#clip0_15_1009)">
<path fill-rule="evenodd" clip-rule="evenodd" d="M14.25 17.1429C14.9723 17.1429 15.6875 16.9951 16.3547 16.7079C17.0221 16.4207 17.6284 15.9999 18.1391 15.4692C18.6498 14.9386 19.0549 14.3087 19.3313 13.6153C19.6077 12.9221 19.75 12.179 19.75 11.4286C19.75 9.15535 18.8808 6.97512 17.3336 5.36769C15.7865 3.76023 13.688 2.85718 11.5 2.85718C9.31199 2.85718 7.21352 3.76023 5.66637 5.36769C4.11919 6.97512 3.25 9.15535 3.25 11.4286C3.25 12.179 3.39226 12.9221 3.66866 13.6153C3.94506 14.3087 4.35019 14.9386 4.86091 15.4692C5.37164 15.9999 5.97795 16.4207 6.64526 16.7079C7.31252 16.9951 8.02774 17.1429 8.75 17.1429H14.25ZM11.5 5.14289C9.89543 5.14289 8.35659 5.80512 7.22199 6.98392C6.08739 8.16272 5.45 9.76152 5.45 11.4286C5.45 11.8788 5.53535 12.3247 5.7012 12.7407C5.86704 13.1567 6.11011 13.5346 6.41657 13.8529C6.72297 14.1713 7.08675 14.4239 7.48715 14.5962C7.88755 14.7685 8.31666 14.8572 8.75 14.8572H14.25C14.6833 14.8572 15.1125 14.7685 15.5129 14.5962C15.9133 14.4239 16.277 14.1713 16.5834 13.8529C16.8899 13.5346 17.1329 13.1567 17.2988 12.7407C17.4646 12.3247 17.55 11.8788 17.55 11.4286C17.55 9.76152 16.9126 8.16272 15.778 6.98392C14.6434 5.80512 13.1046 5.14289 11.5 5.14289Z" fill="#F29C33"/>
<path fill-rule="evenodd" clip-rule="evenodd" d="M7.65 20C6.71104 20 5.78131 19.7783 4.91382 19.3475C4.04636 18.9168 3.25814 18.2854 2.59419 17.4895C1.93026 16.6935 1.40359 15.7487 1.04426 14.7087C0.684941 13.6688 0.5 12.5542 0.5 11.4286C0.5 8.39754 1.65893 5.49062 3.72183 3.34735C5.78472 1.20408 8.58264 0 11.5 0C14.4174 0 17.2153 1.20408 19.2782 3.34735C21.3411 5.49062 22.5 8.39754 22.5 11.4286C22.5 12.5542 22.315 13.6688 21.9557 14.7087C21.5964 15.7487 21.0697 16.6935 20.4058 17.4895C19.7419 18.2854 18.9537 18.9168 18.0862 19.3475C17.2187 19.7783 16.289 20 15.35 20H7.65ZM5.27746 4.96359C6.9278 3.24898 9.16608 2.28571 11.5 2.28571C13.8339 2.28571 16.0722 3.24898 17.7225 4.96359C19.3729 6.67823 20.3 9.00371 20.3 11.4286C20.3 12.2959 20.1572 13.149 19.8851 13.9365C19.6131 14.7239 19.2207 15.4202 18.7433 15.9925C18.2664 16.5642 17.7175 16.9973 17.1375 17.2853C16.559 17.5726 15.9526 17.7143 15.35 17.7143H7.65C7.04737 17.7143 6.44105 17.5726 5.86249 17.2853C5.28252 16.9973 4.73357 16.5642 4.2567 15.9925C3.77933 15.4202 3.38697 14.7239 3.11488 13.9365C2.84279 13.149 2.7 12.2959 2.7 11.4286C2.7 9.00371 3.62714 6.67823 5.27746 4.96359Z" fill="#EE6352"/>
<path opacity="0.4" d="M14.25 14.2857H11.4976C11.3128 14.2855 11.1294 14.2659 10.95 14.2279C10.6024 14.1542 10.27 14.0109 9.97221 13.8041C9.51995 13.4902 9.16745 13.044 8.95933 12.5219C8.89185 12.3526 8.84047 12.1778 8.80555 11.9999C8.73273 11.6294 8.73113 11.2456 8.80285 10.8711C8.90895 10.3169 9.17086 9.80778 9.55548 9.40823C9.94004 9.00863 10.43 8.73652 10.9635 8.62629C10.9802 8.6228 10.9969 8.61955 11.0136 8.6164C11.1748 8.58635 11.3376 8.57138 11.5 8.57138C11.8594 8.57138 12.2171 8.64458 12.5524 8.78886C13.0549 9.00509 13.4843 9.37132 13.7865 9.84115C14.0887 10.311 14.25 10.8634 14.25 11.4285H12.05C12.05 11.3155 12.0178 11.205 11.9573 11.111C11.8969 11.0171 11.811 10.9438 11.7105 10.9006C11.61 10.8573 11.4994 10.846 11.3927 10.8681C11.286 10.8901 11.188 10.9445 11.1111 11.0245C11.0342 11.1043 10.9818 11.2062 10.9606 11.317C10.9393 11.4279 10.9502 11.5428 10.9919 11.6472C11.0335 11.7516 11.104 11.8409 11.1944 11.9037C11.2849 11.9665 11.3912 11.9999 11.5 11.9999H14.25C14.3222 11.9999 14.3938 11.9851 14.4605 11.9565C14.5272 11.9277 14.5878 11.8857 14.6389 11.8326C14.69 11.7795 14.7305 11.7165 14.7581 11.6472C14.7858 11.5779 14.8 11.5035 14.8 11.4285C14.8 10.5192 14.4523 9.64715 13.8334 9.00418C13.2146 8.36115 12.3752 7.99995 11.5 7.99995C11.4051 7.99995 11.3106 8.00418 11.2168 8.01258C10.9861 8.0332 10.7594 8.07892 10.5402 8.14818C10.3246 8.21623 10.1162 8.30715 9.91837 8.41938C9.69177 8.54795 9.47902 8.70452 9.28515 8.88692C9.24478 8.92486 9.20523 8.96395 9.16657 9.00418C8.8958 9.28543 8.67696 9.61063 8.51642 9.96355C8.43617 10.14 8.37045 10.3234 8.32018 10.5117C8.26265 10.727 8.22524 10.9487 8.20913 11.1739C8.20308 11.2583 8.2 11.3433 8.2 11.4285C8.2 11.8766 8.28454 12.3226 8.45119 12.7406C8.701 13.3671 9.12394 13.9025 9.66663 14.2793C9.66971 14.2814 9.67279 14.2835 9.67587 14.2857H8.75C8.38887 14.2857 8.03126 14.2118 7.69763 14.0682C7.364 13.9246 7.06084 13.7141 6.80548 13.4488C6.55011 13.1835 6.34754 12.8685 6.20933 12.5219C6.07111 12.1753 6 11.8037 6 11.4285C6 9.91298 6.57948 8.45955 7.61089 7.38789C8.64236 6.31629 10.0413 5.71423 11.5 5.71423C12.9587 5.71423 14.3576 6.31629 15.3891 7.38789C16.4205 8.45955 17 9.91298 17 11.4285C17 11.8037 16.9289 12.1753 16.7907 12.5219C16.6525 12.8685 16.4499 13.1835 16.1945 13.4488C15.9392 13.7141 15.636 13.9246 15.3024 14.0682C14.9687 14.2118 14.6111 14.2857 14.25 14.2857Z" fill="#F29C33"/>
</g>
<path d="M28.2012 17H25.5156V2.38086H28.2012V17ZM34.4023 14.4414C34.5065 14.474 34.6107 14.4967 34.7148 14.5098C34.819 14.5163 34.9232 14.5195 35.0273 14.5195C35.2878 14.5195 35.5384 14.4837 35.7793 14.4121C36.0202 14.3405 36.2448 14.2396 36.4531 14.1094C36.668 13.9727 36.8568 13.8099 37.0195 13.6211C37.1888 13.4258 37.3255 13.2109 37.4297 12.9766L39.3828 14.9395C39.1354 15.291 38.849 15.6068 38.5234 15.8867C38.2044 16.1667 37.8561 16.4043 37.4785 16.5996C37.1074 16.7949 36.7135 16.9414 36.2969 17.0391C35.8867 17.1432 35.4635 17.1953 35.0273 17.1953C34.2917 17.1953 33.5983 17.0586 32.9473 16.7852C32.3027 16.5117 31.7363 16.1309 31.248 15.6426C30.7663 15.1543 30.3854 14.5749 30.1055 13.9043C29.8255 13.2272 29.6855 12.485 29.6855 11.6777C29.6855 10.8509 29.8255 10.0957 30.1055 9.41211C30.3854 8.72852 30.7663 8.14583 31.248 7.66406C31.7363 7.18229 32.3027 6.80794 32.9473 6.54102C33.5983 6.27409 34.2917 6.14062 35.0273 6.14062C35.4635 6.14062 35.89 6.19271 36.3066 6.29688C36.7233 6.40104 37.1172 6.55078 37.4883 6.74609C37.8659 6.94141 38.2174 7.18229 38.543 7.46875C38.8685 7.7487 39.1549 8.06445 39.4023 8.41602L34.4023 14.4414ZM35.7695 8.94336C35.6458 8.89779 35.5221 8.86849 35.3984 8.85547C35.2812 8.84245 35.1576 8.83594 35.0273 8.83594C34.6628 8.83594 34.3177 8.9043 33.9922 9.04102C33.6732 9.17122 33.3932 9.36003 33.1523 9.60742C32.918 9.85482 32.7324 10.1543 32.5957 10.5059C32.459 10.8509 32.3906 11.2415 32.3906 11.6777C32.3906 11.7754 32.3939 11.8861 32.4004 12.0098C32.4134 12.1335 32.4297 12.2604 32.4492 12.3906C32.4753 12.5143 32.5046 12.6348 32.5371 12.752C32.5697 12.8691 32.612 12.9733 32.6641 13.0645L35.7695 8.94336ZM45.9941 17C45.3496 17 44.7441 16.8796 44.1777 16.6387C43.6113 16.3913 43.1133 16.056 42.6836 15.6328C42.2604 15.2031 41.9251 14.7051 41.6777 14.1387C41.4368 13.5723 41.3164 12.9668 41.3164 12.3223V9.2168H40.0176V6.56055H41.3164V2.38086H43.9727V6.56055H48.0156V9.2168H43.9727V12.3223C43.9727 12.6022 44.0247 12.8659 44.1289 13.1133C44.2331 13.3542 44.3763 13.5658 44.5586 13.748C44.7409 13.9303 44.9557 14.0768 45.2031 14.1875C45.4505 14.2917 45.7142 14.3438 45.9941 14.3438H48.0156V17H45.9941ZM58.6602 8.62109L56.707 10.584C56.6094 10.3105 56.4759 10.0664 56.3066 9.85156C56.1374 9.63021 55.9453 9.44466 55.7305 9.29492C55.5221 9.14518 55.2943 9.03125 55.0469 8.95312C54.7995 8.875 54.5456 8.83594 54.2852 8.83594C53.9206 8.83594 53.5755 8.91081 53.25 9.06055C52.931 9.21029 52.651 9.42188 52.4102 9.69531C52.1758 9.96224 51.9902 10.2812 51.8535 10.6523C51.7168 11.0234 51.6484 11.4336 51.6484 11.8828C51.6484 12.2474 51.7168 12.5892 51.8535 12.9082C51.9902 13.2272 52.1758 13.5072 52.4102 13.748C52.651 13.9889 52.931 14.1777 53.25 14.3145C53.5755 14.4512 53.9206 14.5195 54.2852 14.5195C54.5456 14.5195 54.7962 14.4837 55.0371 14.4121C55.278 14.3405 55.5026 14.2396 55.7109 14.1094C55.9258 13.9727 56.1146 13.8099 56.2773 13.6211C56.4466 13.4258 56.5833 13.2109 56.6875 12.9766L58.6406 14.9395C58.3932 15.291 58.1068 15.6068 57.7812 15.8867C57.4622 16.1667 57.1139 16.4043 56.7363 16.5996C56.3652 16.7949 55.9714 16.9414 55.5547 17.0391C55.1445 17.1432 54.7214 17.1953 54.2852 17.1953C53.5495 17.1953 52.8561 17.0586 52.2051 16.7852C51.5605 16.5052 50.9941 16.1243 50.5059 15.6426C50.0241 15.1608 49.6432 14.5977 49.3633 13.9531C49.0833 13.3086 48.9434 12.6185 48.9434 11.8828C48.9434 11.082 49.0833 10.3333 49.3633 9.63672C49.6432 8.9401 50.0241 8.33464 50.5059 7.82031C50.9941 7.29948 51.5605 6.88932 52.2051 6.58984C52.8561 6.29036 53.5495 6.14062 54.2852 6.14062C54.7214 6.14062 55.1478 6.19596 55.5645 6.30664C55.9876 6.41732 56.388 6.58008 56.7656 6.79492C57.1497 7.00326 57.5013 7.26042 57.8203 7.56641C58.1458 7.8724 58.4258 8.22396 58.6602 8.62109ZM69.9199 11.6777C69.9199 12.459 69.7799 13.1882 69.5 13.8652C69.2201 14.5358 68.8392 15.1185 68.3574 15.6133C67.8757 16.1016 67.3092 16.4889 66.6582 16.7754C66.0137 17.0553 65.3203 17.1953 64.5781 17.1953C63.8424 17.1953 63.1491 17.0553 62.498 16.7754C61.8535 16.4889 61.2871 16.1016 60.7988 15.6133C60.3171 15.1185 59.9362 14.5358 59.6562 13.8652C59.3763 13.1882 59.2363 12.459 59.2363 11.6777C59.2363 10.8835 59.3763 10.1478 59.6562 9.4707C59.9362 8.79362 60.3171 8.21094 60.7988 7.72266C61.2871 7.22786 61.8535 6.84049 62.498 6.56055C63.1491 6.2806 63.8424 6.14062 64.5781 6.14062C65.3203 6.14062 66.0137 6.27409 66.6582 6.54102C67.3092 6.80143 67.8757 7.17578 68.3574 7.66406C68.8392 8.14583 69.2201 8.72852 69.5 9.41211C69.7799 10.0892 69.9199 10.8444 69.9199 11.6777ZM67.2344 11.6777C67.2344 11.248 67.1628 10.8607 67.0195 10.5156C66.8828 10.1641 66.694 9.86458 66.4531 9.61719C66.2122 9.36328 65.929 9.17122 65.6035 9.04102C65.2845 8.9043 64.9427 8.83594 64.5781 8.83594C64.2135 8.83594 63.8685 8.9043 63.543 9.04102C63.224 9.17122 62.944 9.36328 62.7031 9.61719C62.4688 9.86458 62.2832 10.1641 62.1465 10.5156C62.0098 10.8607 61.9414 11.248 61.9414 11.6777C61.9414 12.0814 62.0098 12.4557 62.1465 12.8008C62.2832 13.1458 62.4688 13.4453 62.7031 13.6992C62.944 13.9531 63.224 14.1549 63.543 14.3047C63.8685 14.4479 64.2135 14.5195 64.5781 14.5195C64.9427 14.5195 65.2845 14.4512 65.6035 14.3145C65.929 14.1777 66.2122 13.9857 66.4531 13.7383C66.694 13.4909 66.8828 13.1914 67.0195 12.8398C67.1628 12.4883 67.2344 12.1009 67.2344 11.6777ZM81.502 11.6777C81.502 12.459 81.362 13.1882 81.082 13.8652C80.8021 14.5358 80.4212 15.1185 79.9395 15.6133C79.4577 16.1016 78.8913 16.4889 78.2402 16.7754C77.5957 17.0553 76.9023 17.1953 76.1602 17.1953C75.4245 17.1953 74.7311 17.0553 74.0801 16.7754C73.4355 16.4889 72.8691 16.1016 72.3809 15.6133C71.8991 15.1185 71.5182 14.5358 71.2383 13.8652C70.9583 13.1882 70.8184 12.459 70.8184 11.6777C70.8184 10.8835 70.9583 10.1478 71.2383 9.4707C71.5182 8.79362 71.8991 8.21094 72.3809 7.72266C72.8691 7.22786 73.4355 6.84049 74.0801 6.56055C74.7311 6.2806 75.4245 6.14062 76.1602 6.14062C76.9023 6.14062 77.5957 6.27409 78.2402 6.54102C78.8913 6.80143 79.4577 7.17578 79.9395 7.66406C80.4212 8.14583 80.8021 8.72852 81.082 9.41211C81.362 10.0892 81.502 10.8444 81.502 11.6777ZM78.8164 11.6777C78.8164 11.248 78.7448 10.8607 78.6016 10.5156C78.4648 10.1641 78.276 9.86458 78.0352 9.61719C77.7943 9.36328 77.5111 9.17122 77.1855 9.04102C76.8665 8.9043 76.5247 8.83594 76.1602 8.83594C75.7956 8.83594 75.4505 8.9043 75.125 9.04102C74.806 9.17122 74.526 9.36328 74.2852 9.61719C74.0508 9.86458 73.8652 10.1641 73.7285 10.5156C73.5918 10.8607 73.5234 11.248 73.5234 11.6777C73.5234 12.0814 73.5918 12.4557 73.7285 12.8008C73.8652 13.1458 74.0508 13.4453 74.2852 13.6992C74.526 13.9531 74.806 14.1549 75.125 14.3047C75.4505 14.4479 75.7956 14.5195 76.1602 14.5195C76.5247 14.5195 76.8665 14.4512 77.1855 14.3145C77.5111 14.1777 77.7943 13.9857 78.0352 13.7383C78.276 13.4909 78.4648 13.1914 78.6016 12.8398C78.7448 12.4883 78.8164 12.1009 78.8164 11.6777ZM85.6621 17H82.9766V2.38086H85.6621V11.5996L89.6367 6.56055H92.7031L89.2363 10.916L92.7031 17H89.6367L87.5176 13.2012L85.6621 15.6621V17Z" fill="#F15025"/>
<defs>
<clipPath id="clip0_15_1009">
<rect width="22" height="20" fill="white" transform="translate(0.5)"/>
</clipPath>
</defs>
</svg>
